# xmcd
#
# Track frame offsets:
#	150
#	13876
#	25398
#	40370
#	56853
#	72087
#	93325
#	108671
#	123818
#	140256
#	155302
#
# Disc length: 2225 seconds
#
# Revision: 0
# Processed by: cddbd v1.5.1PL0 Copyright (c) Steve Scherf et al.
# Submitted via: dBpowerAMP V4.0
#
DISCID=9308af0b
DTITLE=Nicolette Larson - Sleep Baby Sleep
DYEAR=1900
DGENRE=
TTITLE0=Welcome To My World
TTITLE1=Oh Bear
TTITLE2=Starlight, Starbirght
TTITLE3=Irish Lullaby
TTITLE4=Barefoot Floors
TTITLE5=Appalachian Lullaby
TTITLE6=I Bid You Goodnight
TTITLE7=Moon and Me
TTITLE8=Rock-a-bye (Mallory's Song) 
TTITLE9=Rocking My Baby To Sleep
TTITLE10=Moment I Saw You
EXTD=
EXTT0=
EXTT1=
EXTT2=
EXTT3=
EXTT4=
EXTT5=
EXTT6=
EXTT7=
EXTT8=
EXTT9=
EXTT10=
PLAYORDER=
